<?xml version="1.0" encoding="utf-8"?>
<!-- Generator: Adobe Illustrator 22.0.1, SVG Export Plug-In . SVG Version: 6.00 Build 0)  -->
<svg width="34" version="1.1" id="Layer_1" xmlns="http://www.w3.org/2000/svg" xmlns:xlink="http://www.w3.org/1999/xlink" x="0px" y="0px"
	 viewBox="0 0 24 24" style="enable-background:new 0 0 24 24;" xml:space="preserve">
<style type="text/css">
	.st0{fill:url(#SVGID_1_);}
</style>
<linearGradient id="SVGID_1_" gradientUnits="userSpaceOnUse" x1="12" y1="2.4523" x2="12" y2="21.5476">
	<stop  offset="0" style="stop-color:#FFAE00"/>
	<stop  offset="1" style="stop-color:#FF7124"/>
</linearGradient>
<path class="st0" d="M17.2,12c-0.7-0.9-1.5-1.9-2.4-2.8S12.9,7.4,12,6.8c-0.9,0.7-1.9,1.5-2.8,2.4S7.4,11.1,6.8,12
	c0.7,0.9,1.5,1.9,2.4,2.8s1.9,1.7,2.8,2.4c0.9-0.7,1.9-1.5,2.8-2.4S16.6,12.9,17.2,12z M18.4,10.2c1.3-2.4,1.6-4.4,0.7-5.2
	s-2.9-0.6-5.2,0.7c0.8,0.6,1.6,1.3,2.4,2.1C17,8.5,17.7,9.4,18.4,10.2z M10.2,18.4c-0.8-0.6-1.6-1.3-2.4-2.1
	c-0.8-0.8-1.5-1.6-2.1-2.4c-1.3,2.4-1.6,4.4-0.7,5.2S7.8,19.6,10.2,18.4z M19.6,12c2.1,3.4,2.6,6.7,0.9,8.5
	c-1.8,1.8-5.1,1.2-8.5-0.9c-3.4,2.1-6.7,2.6-8.5,0.9c-1.8-1.8-1.2-5.1,0.9-8.5C2.3,8.6,1.8,5.3,3.5,3.5S8.6,2.3,12,4.4
	c3.4-2.1,6.7-2.6,8.5-0.9C22.2,5.3,21.7,8.6,19.6,12z M18.4,13.8c-0.6,0.8-1.3,1.6-2.1,2.4c-0.8,0.8-1.6,1.5-2.4,2.1
	c2.4,1.3,4.4,1.6,5.2,0.7S19.6,16.2,18.4,13.8z M5.6,10.2C6.3,9.4,7,8.5,7.8,7.8s1.6-1.5,2.4-2.1C7.8,4.4,5.8,4.1,4.9,4.9
	S4.4,7.8,5.6,10.2z M12,11c0.6,0,1,0.4,1,1s-0.4,1-1,1s-1-0.4-1-1S11.4,11,12,11z"/>
</svg>
