<?xml version="1.0" encoding="utf-8"?>
<!-- Generator: Adobe Illustrator 22.0.1, SVG Export Plug-In . SVG Version: 6.00 Build 0)  -->
<svg width="34" version="1.1" id="Layer_1" xmlns="http://www.w3.org/2000/svg" xmlns:xlink="http://www.w3.org/1999/xlink" x="0px" y="0px"
	 viewBox="0 0 24 24" style="enable-background:new 0 0 24 24;" xml:space="preserve">
<style type="text/css">
	.st0{fill:url(#SVGID_1_);}
</style>
<linearGradient id="SVGID_1_" gradientUnits="userSpaceOnUse" x1="12" y1="3" x2="12" y2="21">
	<stop  offset="0" style="stop-color:#FFAE00"/>
	<stop  offset="1" style="stop-color:#FF7124"/>
</linearGradient>
<path class="st0" d="M5.3,4c0.3-0.6,1-1,1.7-1h10c0.7,0,1.4,0.4,1.7,1H20c1.1,0,2,0.9,2,2v3c0,3.2-1.5,5.6-4.2,5.9
	c-1.1,1.6-2.8,2.7-4.8,3V19h1c1.1,0,2,0.9,2,2H8c0-1.1,0.9-2,2-2h1v-1.1c-2-0.3-3.7-1.4-4.8-3C3.5,14.6,2,12.2,2,9V6
	c0-1.1,0.9-2,2-2H5.3z M5,6H4v3c0,1.5,0.4,2.7,1.1,3.3C5,11.9,5,11.5,5,11V6z M19,6v5c0,0.5,0,0.9-0.1,1.3C19.6,11.7,20,10.5,20,9V6
	H19z M7,5v6c0,2.8,2.2,5,5,5s5-2.2,5-5V5H7z"/>
</svg>
