<?xml version="1.0" encoding="utf-8"?>
<!-- Generator: Adobe Illustrator 22.0.1, SVG Export Plug-In . SVG Version: 6.00 Build 0)  -->
<svg version="1.1" id="Layer_1" xmlns="http://www.w3.org/2000/svg" xmlns:xlink="http://www.w3.org/1999/xlink" x="0px" y="0px"
	 viewBox="0 0 215.9 64.5" style="enable-background:new 0 0 215.9 64.5;" xml:space="preserve">
<style type="text/css">
	.st0{fill:#00569E;}
	.st1{fill-rule:evenodd;clip-rule:evenodd;fill:#00569E;}
	.st2{fill-rule:evenodd;clip-rule:evenodd;fill:#F58220;}
	.st3{fill:#F58220;}
	.st4{fill-rule:evenodd;clip-rule:evenodd;fill:#FFFFFF;}
</style>
<g>
	<path class="st0" d="M71.5,28.8V16h-6.1v-4.2h17.7V16H77v12.8H71.5L71.5,28.8z M86.9,28.8c-0.4,0-0.7,0-1.1-0.1
		c-0.3-0.1-0.7-0.2-1-0.5c-0.4-0.3-0.6-0.7-0.7-1c-0.1-0.3-0.1-0.7-0.1-1.1V14.4c0-0.3,0-0.7,0.1-1c0.1-0.3,0.3-0.7,0.6-0.9
		c0.3-0.3,0.7-0.5,1-0.6c0.4-0.1,0.7-0.1,1-0.1h12.2v4.1h-8.4c-0.2,0-0.3,0-0.5,0.1c-0.2,0-0.3,0.1-0.4,0.2
		c-0.1,0.1-0.2,0.3-0.2,0.4c0,0.2,0,0.3,0,0.4v1.3h9.3V22h-9.3v1.9c0,0.2,0,0.3,0.1,0.4c0,0.1,0.1,0.2,0.2,0.2
		c0.1,0.1,0.3,0.2,0.5,0.2c0.2,0,0.4,0,0.6,0h8.3v4.1H86.9L86.9,28.8z M107.5,15.8c-0.1,0-0.3,0-0.4,0c-0.1,0-0.3,0.1-0.4,0.2
		c-0.1,0.1-0.2,0.3-0.2,0.4c0,0.1,0,0.3,0,0.5v11.8h-5.5V14.2c0-0.3,0-0.6,0.1-0.9c0.1-0.3,0.3-0.6,0.5-0.9c0.4-0.4,0.8-0.6,1.3-0.7
		c0.5,0,0.9-0.1,1.3-0.1h10.7c0.5,0,1,0,1.4,0.1c0.4,0.1,0.8,0.3,1.1,0.6c0.3,0.3,0.5,0.6,0.5,0.9c0.1,0.3,0.1,0.6,0.1,0.9v14.6
		h-5.5V17c0-0.1,0-0.3,0-0.5c0-0.2-0.1-0.3-0.2-0.4c-0.1-0.1-0.3-0.2-0.4-0.2c-0.1,0-0.3,0-0.5,0H107.5L107.5,15.8z M124.9,13.3
		c0.2-0.4,0.4-0.7,0.7-1c0.3-0.2,0.6-0.4,1-0.5c0.3-0.1,0.7-0.2,1-0.2c0.3,0,0.7,0,0.9,0c0.3,0,0.6,0,0.9,0c0.3,0,0.7,0.1,1,0.2
		c0.3,0.1,0.7,0.3,1,0.5c0.3,0.2,0.6,0.6,0.7,1l6.6,15.5H133l-4.1-11.3c0,0-0.1-0.1-0.1-0.2c0-0.1-0.1-0.2-0.2-0.2
		c-0.1,0-0.1,0.1-0.2,0.2c0,0.1-0.1,0.2-0.1,0.2l-4.1,11.3h-5.8L124.9,13.3L124.9,13.3z M144,20.3c0,0.7,0,1.3,0.1,1.8
		c0.1,0.5,0.2,1,0.5,1.4c0.2,0.3,0.4,0.5,0.6,0.7c0.2,0.2,0.5,0.3,0.7,0.4c0.3,0.1,0.5,0.1,0.8,0.2c0.3,0,0.6,0,1,0c0.4,0,0.7,0,1,0
		c0.3,0,0.6-0.1,0.8-0.2c0.2-0.1,0.5-0.2,0.7-0.4c0.2-0.2,0.4-0.4,0.6-0.7c0.3-0.5,0.5-0.9,0.5-1.4c0.1-0.5,0.1-1.1,0.1-1.8
		c0-0.4,0-0.7,0-1c0-0.3,0-0.6-0.1-0.8c0-0.3-0.1-0.5-0.2-0.7c-0.1-0.2-0.2-0.5-0.4-0.7c-0.4-0.6-0.8-0.9-1.3-1
		c-0.5-0.1-1.1-0.2-1.8-0.2c-0.4,0-0.7,0-1,0c-0.3,0-0.6,0.1-0.8,0.2c-0.3,0.1-0.5,0.2-0.7,0.4c-0.2,0.2-0.4,0.4-0.6,0.7
		c-0.3,0.5-0.5,0.9-0.5,1.4C144,19,144,19.6,144,20.3L144,20.3z M147.7,11.6c0.6,0,1.3,0,2,0c0.7,0,1.4,0.1,2,0.2
		c0.7,0.1,1.3,0.3,1.9,0.5c0.6,0.2,1.1,0.6,1.6,1c0.5,0.4,0.8,0.9,1.1,1.5c0.3,0.6,0.5,1.2,0.6,1.8c0.1,0.6,0.2,1.2,0.2,1.9
		c0,0.6,0,1.2,0,1.8c0,0.6,0,1.2,0,1.8c0,0.6-0.1,1.3-0.2,1.9c-0.1,0.6-0.3,1.2-0.6,1.8c-0.3,0.6-0.6,1.1-1.1,1.5
		c-0.5,0.4-1,0.8-1.6,1c-0.6,0.2-1.2,0.4-1.9,0.5c-0.7,0.1-1.3,0.2-2,0.2c-0.7,0-1.4,0-2,0c-0.6,0-1.3,0-2,0c-0.7,0-1.4-0.1-2-0.2
		c-0.7-0.1-1.3-0.3-1.9-0.5c-0.6-0.2-1.1-0.6-1.6-1c-0.5-0.4-0.8-0.9-1.1-1.5c-0.3-0.6-0.4-1.2-0.6-1.8s-0.2-1.2-0.2-1.9
		c0-0.6,0-1.2,0-1.8c0-0.6,0-1.2,0-1.8c0-0.6,0.1-1.3,0.2-1.9s0.3-1.2,0.6-1.8c0.3-0.6,0.6-1.1,1.1-1.5c0.5-0.4,1-0.8,1.6-1
		c0.6-0.2,1.2-0.4,1.9-0.5c0.7-0.1,1.3-0.2,2-0.2C146.4,11.6,147.1,11.6,147.7,11.6L147.7,11.6z M164.6,23.3c0,0.3,0,0.5,0,0.7
		c0,0.2,0.1,0.3,0.1,0.4c0.1,0.1,0.3,0.2,0.5,0.2c0.2,0,0.4,0,0.5,0h2.9c0.5,0,0.9,0,1.1-0.1c0.2-0.1,0.3-0.2,0.4-0.2
		c0.1-0.1,0.2-0.2,0.2-0.4c0.1-0.2,0.1-0.4,0.1-0.6c0-0.3-0.1-0.5-0.2-0.7c-0.2-0.2-0.4-0.4-0.7-0.4c-0.3,0-0.5-0.1-0.7-0.1h-4.3
		V23.3L164.6,23.3z M168.6,18.3c0.2,0,0.5,0,0.7-0.1c0.3,0,0.5-0.2,0.6-0.4c0.1-0.1,0.1-0.2,0.1-0.4c0-0.1,0-0.3,0-0.4
		c0-0.2,0-0.3-0.1-0.4c0-0.1-0.1-0.2-0.2-0.3c-0.2-0.2-0.4-0.3-0.6-0.3c-0.2,0-0.4,0-0.6,0h-3.1c-0.1,0-0.3,0-0.4,0
		c-0.1,0-0.2,0.1-0.3,0.2c-0.1,0.1-0.2,0.2-0.2,0.4c0,0.1,0,0.2,0,0.4v1.4H168.6L168.6,18.3z M159,14.5c0-0.8,0.2-1.5,0.6-1.9
		c0.2-0.2,0.5-0.4,0.8-0.6c0.3-0.2,0.7-0.2,1.1-0.2h9.3c0.3,0,0.6,0,1,0c0.3,0,0.7,0.1,1,0.1c0.3,0.1,0.6,0.2,0.9,0.3
		c0.3,0.1,0.6,0.3,0.8,0.6c0.2,0.2,0.4,0.5,0.6,0.8c0.1,0.3,0.2,0.6,0.3,0.9c0.1,0.3,0.1,0.6,0.1,1c0,0.3,0,0.6,0,0.9
		c0,0.5,0,0.9-0.1,1.4c-0.1,0.4-0.3,0.9-0.7,1.3c-0.5,0.5-1,0.8-1.7,0.9v0.1c0.4,0,0.8,0.1,1.2,0.3c0.3,0.2,0.6,0.4,0.9,0.6
		c0.5,0.4,0.7,0.9,0.8,1.4c0.1,0.5,0.1,1.1,0.1,1.6c0,0.3,0,0.6,0,0.9c0,0.3,0,0.6-0.1,0.9s-0.2,0.6-0.3,0.9
		c-0.1,0.3-0.3,0.6-0.6,0.9c-0.3,0.3-0.6,0.5-0.9,0.7c-0.3,0.2-0.6,0.3-0.9,0.4c-0.3,0.1-0.6,0.1-1,0.1c-0.3,0-0.7,0-1.1,0h-8.9
		c-0.2,0-0.4,0-0.6,0c-0.2,0-0.4,0-0.7-0.1c-0.2,0-0.4-0.1-0.7-0.2c-0.2-0.1-0.4-0.3-0.6-0.5c-0.2-0.2-0.4-0.5-0.5-0.9
		c-0.1-0.3-0.2-0.7-0.2-1V14.5L159,14.5z M184.7,21.4h3.5l-1.5-4.3c0-0.1-0.1-0.1-0.1-0.2c0-0.1-0.1-0.1-0.1-0.1c0,0-0.1,0-0.1,0.1
		c0,0.1-0.1,0.2-0.1,0.2L184.7,21.4L184.7,21.4z M182.5,13.6c0.1-0.3,0.3-0.6,0.5-0.9c0.2-0.3,0.4-0.5,0.7-0.7s0.7-0.3,1.1-0.4
		c0.4-0.1,1-0.1,1.6-0.1c0.4,0,0.8,0,1.2,0.1c0.4,0,0.7,0.1,1.1,0.3c0.3,0.1,0.6,0.3,0.9,0.6c0.3,0.3,0.5,0.6,0.7,1.1l6.3,15.2h-5.8
		l-1.3-3.5h-6.1l-1.3,3.5h-5.8L182.5,13.6L182.5,13.6z M208.7,28.8V17.1c0-0.1,0-0.3,0-0.4c0-0.2-0.1-0.3-0.3-0.4
		c-0.1-0.1-0.3-0.2-0.4-0.2c-0.1,0-0.3,0-0.5,0H204c-0.2,0-0.4,0-0.6,0.1c-0.2,0.1-0.4,0.2-0.6,0.4c-0.1,0.2-0.2,0.4-0.3,0.7
		c0,0.2-0.1,0.5-0.1,0.7c0,0.4,0,0.7,0.1,0.9c0,0.2,0.1,0.3,0.1,0.3c0.2,0.3,0.4,0.5,0.7,0.6c0.3,0.1,0.5,0.1,0.8,0.1h1.1
		c0.2,0,0.4,0,0.7,0c0.3,0,0.5,0.1,0.8,0.2c0.3,0.1,0.5,0.3,0.7,0.5c0.2,0.2,0.3,0.5,0.3,0.9v0.4c0,0.5-0.1,1-0.3,1.3
		c-0.2,0.3-0.5,0.7-0.7,1.1l-3.5,4.6h-6.6l4.7-5v-0.1h-0.7c-0.2,0-0.4,0-0.7-0.1c-0.3,0-0.5-0.1-0.8-0.3c-0.3-0.1-0.5-0.3-0.8-0.5
		c-0.3-0.2-0.5-0.5-0.6-0.8c-0.2-0.3-0.3-0.6-0.4-1c-0.1-0.4-0.2-0.8-0.2-1.2c0-0.4-0.1-0.8-0.1-1.2c0-0.4,0-0.8,0-1.2
		c0-0.7,0-1.4,0.1-2.1c0.1-0.7,0.3-1.3,0.7-2c0.5-0.7,1-1.1,1.7-1.4c0.7-0.2,1.5-0.3,2.4-0.3h9.8c0.3,0,0.7,0.1,1,0.2
		c0.3,0.1,0.6,0.3,0.9,0.6c0.3,0.3,0.4,0.6,0.5,1c0.1,0.4,0.1,0.7,0.1,1v14.3H208.7L208.7,28.8z M72,44.1c0,0.7,0,1.3,0.1,1.8
		c0.1,0.5,0.2,1,0.5,1.4c0.2,0.3,0.4,0.5,0.6,0.7c0.2,0.2,0.5,0.3,0.7,0.4c0.3,0.1,0.5,0.1,0.8,0.2c0.3,0,0.6,0,1,0c0.4,0,0.7,0,1,0
		c0.3,0,0.6-0.1,0.8-0.2c0.2-0.1,0.5-0.2,0.7-0.4c0.2-0.2,0.4-0.4,0.6-0.7c0.3-0.5,0.5-0.9,0.5-1.4c0.1-0.5,0.1-1.1,0.1-1.8
		c0-0.4,0-0.7,0-1c0-0.3,0-0.6-0.1-0.8c0-0.3-0.1-0.5-0.2-0.7c-0.1-0.2-0.2-0.5-0.4-0.7c-0.4-0.6-0.8-0.9-1.3-1s-1.1-0.2-1.8-0.2
		c-0.4,0-0.7,0-1,0c-0.3,0-0.6,0.1-0.8,0.2c-0.3,0.1-0.5,0.2-0.7,0.4c-0.2,0.2-0.4,0.4-0.6,0.7c-0.3,0.5-0.5,0.9-0.5,1.4
		C72,42.8,72,43.4,72,44.1L72,44.1z M75.7,35.4c0.6,0,1.3,0,2,0c0.7,0,1.4,0.1,2,0.2c0.7,0.1,1.3,0.3,1.9,0.5c0.6,0.2,1.1,0.6,1.6,1
		c0.5,0.4,0.8,0.9,1.1,1.5c0.3,0.6,0.5,1.2,0.6,1.8c0.1,0.6,0.2,1.2,0.2,1.9c0,0.6,0,1.2,0,1.8c0,0.6,0,1.2,0,1.8
		c0,0.6-0.1,1.3-0.2,1.9s-0.3,1.2-0.6,1.8c-0.3,0.6-0.6,1.1-1.1,1.5c-0.5,0.4-1,0.8-1.6,1c-0.6,0.2-1.2,0.4-1.9,0.5
		c-0.7,0.1-1.3,0.2-2,0.2c-0.7,0-1.4,0-2,0s-1.3,0-2,0c-0.7,0-1.4-0.1-2-0.2c-0.7-0.1-1.3-0.3-1.9-0.5c-0.6-0.2-1.1-0.6-1.6-1
		c-0.5-0.4-0.8-0.9-1.1-1.5c-0.3-0.6-0.4-1.2-0.6-1.8c-0.1-0.6-0.2-1.2-0.2-1.9c0-0.6,0-1.2,0-1.8c0-0.6,0-1.2,0-1.8
		c0-0.6,0.1-1.3,0.2-1.9c0.1-0.6,0.3-1.2,0.6-1.8c0.3-0.6,0.6-1.1,1.1-1.5c0.5-0.4,1-0.8,1.6-1c0.6-0.2,1.2-0.4,1.9-0.5
		c0.7-0.1,1.3-0.2,2-0.2C74.4,35.4,75.1,35.4,75.7,35.4L75.7,35.4z M94.5,47.3c0,0.3,0,0.5,0.1,0.7s0.1,0.3,0.2,0.3
		c0.1,0.1,0.2,0.1,0.4,0.1c0.1,0,0.3,0,0.5,0h3.2c0.2,0,0.4,0,0.6,0c0.3,0,0.5-0.1,0.6-0.3c0.2-0.1,0.3-0.3,0.3-0.5
		c0-0.2,0-0.4,0-0.5c0-0.2,0-0.4,0-0.5c0-0.2-0.1-0.3-0.3-0.4c-0.2-0.1-0.4-0.2-0.6-0.3c-0.2,0-0.4,0-0.6,0h-4.4V47.3L94.5,47.3z
		 M105.2,39.8h-9.6c-0.3,0-0.5,0-0.6,0.1c-0.1,0-0.2,0.1-0.3,0.2c-0.1,0.1-0.1,0.2-0.1,0.3c0,0.1,0,0.3,0,0.4v1.2h7.9
		c0.7,0,1.2,0.1,1.7,0.3c0.5,0.2,0.8,0.5,1.1,0.8c0.2,0.3,0.4,0.6,0.5,0.9c0.1,0.3,0.2,0.7,0.3,1.1c0.1,0.4,0.1,0.7,0.1,1.1
		c0,0.3,0,0.7,0,1c0,0.7-0.1,1.5-0.2,2.2c-0.1,0.7-0.4,1.4-0.8,1.9c0,0.1-0.1,0.2-0.3,0.3c-0.1,0.1-0.3,0.3-0.6,0.4
		c-0.2,0.1-0.5,0.3-0.8,0.4c-0.3,0.1-0.7,0.2-1.1,0.2h-11c-0.7,0-1.3-0.2-1.7-0.7c-0.4-0.4-0.7-1-0.7-1.7V38.3
		c0-0.6,0.1-1.2,0.3-1.5c0.2-0.4,0.5-0.6,0.8-0.8c0.3-0.2,0.6-0.3,0.9-0.3c0.3,0,0.5-0.1,0.7-0.1h13.5V39.8L105.2,39.8z M115.2,44.1
		c0,0.7,0,1.3,0.1,1.8c0.1,0.5,0.2,1,0.5,1.4c0.2,0.3,0.4,0.5,0.6,0.7c0.2,0.2,0.5,0.3,0.7,0.4c0.3,0.1,0.5,0.1,0.8,0.2
		c0.3,0,0.6,0,1,0c0.4,0,0.7,0,1,0c0.3,0,0.6-0.1,0.8-0.2c0.2-0.1,0.5-0.2,0.7-0.4c0.2-0.2,0.4-0.4,0.6-0.7c0.3-0.5,0.5-0.9,0.5-1.4
		s0.1-1.1,0.1-1.8c0-0.4,0-0.7,0-1c0-0.3,0-0.6-0.1-0.8c0-0.3-0.1-0.5-0.2-0.7c-0.1-0.2-0.2-0.5-0.4-0.7c-0.4-0.6-0.8-0.9-1.3-1
		s-1.1-0.2-1.8-0.2c-0.4,0-0.7,0-1,0c-0.3,0-0.6,0.1-0.8,0.2c-0.3,0.1-0.5,0.2-0.7,0.4c-0.2,0.2-0.4,0.4-0.6,0.7
		c-0.3,0.5-0.5,0.9-0.5,1.4C115.3,42.8,115.2,43.4,115.2,44.1L115.2,44.1z M119,35.4c0.6,0,1.3,0,2,0c0.7,0,1.4,0.1,2,0.2
		c0.7,0.1,1.3,0.3,1.9,0.5c0.6,0.2,1.1,0.6,1.6,1c0.5,0.4,0.8,0.9,1.1,1.5c0.3,0.6,0.5,1.2,0.6,1.8c0.1,0.6,0.2,1.2,0.2,1.9
		c0,0.6,0,1.2,0,1.8c0,0.6,0,1.2,0,1.8c0,0.6-0.1,1.3-0.2,1.9c-0.1,0.6-0.3,1.2-0.6,1.8c-0.3,0.6-0.6,1.1-1.1,1.5
		c-0.5,0.4-1,0.8-1.6,1c-0.6,0.2-1.2,0.4-1.9,0.5c-0.7,0.1-1.3,0.2-2,0.2c-0.7,0-1.4,0-2,0c-0.6,0-1.3,0-2,0c-0.7,0-1.4-0.1-2-0.2
		c-0.7-0.1-1.3-0.3-1.9-0.5c-0.6-0.2-1.1-0.6-1.6-1c-0.5-0.4-0.8-0.9-1.1-1.5c-0.3-0.6-0.4-1.2-0.6-1.8c-0.1-0.6-0.2-1.2-0.2-1.9
		c0-0.6,0-1.2,0-1.8c0-0.6,0-1.2,0-1.8c0-0.6,0.1-1.3,0.2-1.9c0.1-0.6,0.3-1.2,0.6-1.8c0.3-0.6,0.6-1.1,1.1-1.5c0.5-0.4,1-0.8,1.6-1
		c0.6-0.2,1.2-0.4,1.9-0.5c0.7-0.1,1.3-0.2,2-0.2C117.7,35.4,118.3,35.4,119,35.4L119,35.4z M141.7,43.5c0.3,0,0.7,0,1,0
		c0.3,0,0.6-0.2,0.8-0.4c0.3-0.3,0.4-0.8,0.4-1.5c0-0.2,0-0.5-0.1-0.7c0-0.2-0.2-0.5-0.4-0.6c-0.2-0.2-0.5-0.3-0.8-0.3
		c-0.3,0-0.6,0-0.9,0h-3c-0.2,0-0.4,0-0.5,0.1c-0.1,0.1-0.2,0.2-0.3,0.3c-0.1,0.1-0.1,0.2-0.1,0.3c0,0.1,0,0.2,0,0.3v2.7H141.7
		L141.7,43.5z M132.3,52.6V38.8c0-0.4,0-0.8,0.1-1.2c0.1-0.4,0.3-0.8,0.6-1.1c0.2-0.2,0.5-0.4,0.8-0.6c0.4-0.2,0.9-0.3,1.4-0.3h9.4
		c0.7,0,1.3,0.1,1.9,0.2c0.6,0.1,1.2,0.5,1.6,1c0.4,0.4,0.7,1,0.9,1.7c0.2,0.7,0.3,1.7,0.3,2.9c0,0.3,0,0.7,0,1.2
		c0,0.5-0.1,1-0.2,1.5c-0.1,0.5-0.3,1-0.5,1.5c-0.2,0.5-0.5,0.9-0.8,1.2c-0.4,0.3-0.9,0.6-1.4,0.7c-0.6,0.1-1.1,0.2-1.5,0.2h-7.2
		v4.9H132.3L132.3,52.6z M158.6,44.1c0,0.7,0,1.3,0.1,1.8c0.1,0.5,0.2,1,0.5,1.4c0.2,0.3,0.4,0.5,0.6,0.7c0.2,0.2,0.5,0.3,0.7,0.4
		c0.3,0.1,0.5,0.1,0.8,0.2c0.3,0,0.6,0,1,0c0.4,0,0.7,0,1,0c0.3,0,0.6-0.1,0.8-0.2c0.2-0.1,0.5-0.2,0.7-0.4c0.2-0.2,0.4-0.4,0.6-0.7
		c0.3-0.5,0.5-0.9,0.5-1.4c0.1-0.5,0.1-1.1,0.1-1.8c0-0.4,0-0.7,0-1c0-0.3,0-0.6-0.1-0.8c0-0.3-0.1-0.5-0.2-0.7
		c-0.1-0.2-0.2-0.5-0.4-0.7c-0.4-0.6-0.8-0.9-1.3-1s-1.1-0.2-1.8-0.2c-0.4,0-0.7,0-1,0c-0.3,0-0.6,0.1-0.8,0.2
		c-0.3,0.1-0.5,0.2-0.7,0.4c-0.2,0.2-0.4,0.4-0.6,0.7c-0.3,0.5-0.5,0.9-0.5,1.4C158.6,42.8,158.6,43.4,158.6,44.1L158.6,44.1z
		 M162.3,35.4c0.6,0,1.3,0,2,0c0.7,0,1.4,0.1,2,0.2c0.7,0.1,1.3,0.3,1.9,0.5c0.6,0.2,1.1,0.6,1.6,1c0.5,0.4,0.8,0.9,1.1,1.5
		c0.3,0.6,0.5,1.2,0.6,1.8c0.1,0.6,0.2,1.2,0.2,1.9c0,0.6,0,1.2,0,1.8c0,0.6,0,1.2,0,1.8c0,0.6-0.1,1.3-0.2,1.9
		c-0.1,0.6-0.3,1.2-0.6,1.8c-0.3,0.6-0.6,1.1-1.1,1.5c-0.5,0.4-1,0.8-1.6,1c-0.6,0.2-1.2,0.4-1.9,0.5c-0.7,0.1-1.3,0.2-2,0.2
		c-0.7,0-1.4,0-2,0s-1.3,0-2,0c-0.7,0-1.4-0.1-2-0.2c-0.7-0.1-1.3-0.3-1.9-0.5c-0.6-0.2-1.1-0.6-1.6-1c-0.5-0.4-0.8-0.9-1.1-1.5
		c-0.3-0.6-0.4-1.2-0.6-1.8c-0.1-0.6-0.2-1.2-0.2-1.9c0-0.6,0-1.2,0-1.8c0-0.6,0-1.2,0-1.8c0-0.6,0.1-1.3,0.2-1.9
		c0.1-0.6,0.3-1.2,0.6-1.8c0.3-0.6,0.6-1.1,1.1-1.5c0.5-0.4,1-0.8,1.6-1c0.6-0.2,1.2-0.4,1.9-0.5c0.7-0.1,1.3-0.2,2-0.2
		C161,35.4,161.6,35.4,162.3,35.4L162.3,35.4z M192.8,52.6h-5.5v-6.8h-6.2v6.8h-5.5v-17h5.5v6h6.2v-6h5.5V52.6L192.8,52.6z
		 M203.9,45.2h3.5l-1.5-4.3c0-0.1-0.1-0.1-0.1-0.2c0-0.1-0.1-0.1-0.1-0.1c0,0-0.1,0-0.1,0.1c0,0.1-0.1,0.2-0.1,0.2L203.9,45.2
		L203.9,45.2z M201.8,37.5c0.1-0.3,0.3-0.6,0.5-0.9c0.2-0.3,0.4-0.5,0.7-0.7c0.3-0.2,0.7-0.3,1.1-0.4c0.4-0.1,1-0.1,1.6-0.1
		c0.4,0,0.8,0,1.2,0.1c0.4,0,0.7,0.1,1.1,0.3c0.3,0.1,0.6,0.3,0.9,0.6c0.3,0.3,0.5,0.6,0.7,1.1l6.3,15.2h-5.8l-1.3-3.5h-6.1
		l-1.3,3.5h-5.8L201.8,37.5L201.8,37.5z"/>
	<path class="st1" d="M0,0h54.6v26.5c0,16.6-11.4,30-25.7,37.2l-1.6,0.8l-1.6-0.8C11.4,56.5,0,43.2,0,26.5V0L0,0z"/>
	<path class="st2" d="M0,0h27.3v64.5l0,0l-1.6-0.8C11.4,56.5,0,43.2,0,26.5V0L0,0z"/>
	<path class="st3" d="M3.5,3.5v23c0,13.8,9,26.6,23.7,34l0,0C42.1,53.2,51,40.3,51,26.5v-23H3.5L3.5,3.5z"/>
	<path class="st0" d="M3.5,3.5v23c0,13.8,9,26.6,23.7,34l0,0l0,0v-57H3.5L3.5,3.5z"/>
	<polygon class="st1" points="24,15.1 30.9,15.1 30.9,44.3 24,44.3 24,15.1 	"/>
	<polygon class="st2" points="24,15.1 30.9,15.1 30.9,28.8 24,28.8 24,15.1 	"/>
	<path class="st4" d="M27.2,38.6c-0.6,0-1,0.5-1,1c0,0.6,0.5,1,1,1c0.6,0,1-0.5,1-1C28.2,39,27.8,38.6,27.2,38.6L27.2,38.6z"/>
	<path class="st4" d="M31.7,33.7V16.4c0-2.5-2-4.4-4.4-4.4c-2.5,0-4.4,2-4.4,4.4v17.3c-1.9,1.4-2.9,3.6-2.9,5.9
		c0,4.1,3.3,7.4,7.4,7.4c4.1,0,7.4-3.3,7.4-7.4C34.6,37.2,33.5,35.1,31.7,33.7L31.7,33.7z M27.2,42.7c-1.7,0-3.1-1.4-3.1-3.1
		c0-1.3,0.9-2.5,2.1-2.9V16.4c0-0.6,0.5-1,1-1s1,0.5,1,1v20.3c1.2,0.4,2.1,1.6,2.1,2.9C30.3,41.3,28.9,42.7,27.2,42.7L27.2,42.7
		L27.2,42.7z"/>
	<path class="st4" d="M35.4,17.4c-0.6,0-1,0.5-1,1v10.5c0,0.3,0.1,0.5,0.3,0.7c0.2,0.2,0.5,0.3,0.7,0.3c3.5,0,6.3-2.8,6.3-6.3
		C41.7,20.2,38.9,17.4,35.4,17.4L35.4,17.4L35.4,17.4z"/>
	<path class="st4" d="M35.4,15.8c0.6,0,1-0.5,1-1V13c0-0.6-0.5-1-1-1c-0.6,0-1,0.5-1,1v1.8C34.4,15.3,34.9,15.8,35.4,15.8L35.4,15.8
		z"/>
	<path class="st4" d="M35.4,31.6c-0.6,0-1,0.5-1,1v1.8c0,0.6,0.5,1,1,1c0.6,0,1-0.5,1-1v-1.8C36.4,32,36,31.6,35.4,31.6L35.4,31.6z"
		/>
	<path class="st4" d="M46.1,22.6h-1.8c-0.6,0-1,0.5-1,1c0,0.6,0.5,1,1,1h1.8c0.6,0,1-0.5,1-1C47.1,23.1,46.7,22.6,46.1,22.6
		L46.1,22.6L46.1,22.6z"/>
	<path class="st4" d="M41.7,18.4c0.3,0,0.5-0.1,0.7-0.3l1.3-1.3c0.4-0.4,0.4-1.1,0-1.5c-0.4-0.4-1.1-0.4-1.5,0L41,16.6
		c-0.4,0.4-0.4,1.1,0,1.5C41.2,18.3,41.5,18.4,41.7,18.4L41.7,18.4z"/>
	<path class="st4" d="M42.4,29.2c-0.4-0.4-1.1-0.4-1.5,0s-0.4,1.1,0,1.5l1.3,1.3c0.2,0.2,0.5,0.3,0.7,0.3c0.3,0,0.5-0.1,0.7-0.3
		c0.4-0.4,0.4-1.1,0-1.5L42.4,29.2L42.4,29.2z"/>
	<path class="st4" d="M9.3,23.8c0-0.6,0.5-1,1-1h0l0-0.1c-0.3-0.5-0.1-1.1,0.4-1.4c0.5-0.3,1.1-0.1,1.4,0.4l0.6,1.1H17l-3-3
		l-1.2,0.3c-0.1,0-0.2,0-0.3,0c-0.5,0-0.9-0.3-1-0.8c-0.1-0.5,0.2-1.1,0.7-1.3l0.1,0l0,0c-0.4-0.4-0.4-1.1,0-1.5
		c0.4-0.4,1.1-0.4,1.5,0l0,0l0-0.1c0.1-0.5,0.7-0.9,1.3-0.7c0.5,0.1,0.9,0.7,0.7,1.3l-0.3,1.2l3,3v-4.2l-1.1-0.6
		c-0.5-0.3-0.7-0.9-0.4-1.4s0.9-0.7,1.4-0.4l0.1,0v0c0-0.6,0.5-1,1-1c0.6,0,1,0.5,1,1v18.2c0,0.6-0.5,1-1,1c-0.6,0-1-0.5-1-1v0
		l-0.1,0c-0.2,0.1-0.3,0.1-0.5,0.1c-0.4,0-0.7-0.2-0.9-0.5c-0.3-0.5-0.1-1.1,0.4-1.4l1.1-0.6v-4.2l-3,3l0.3,1.2
		c0.1,0.5-0.2,1.1-0.7,1.3c-0.1,0-0.2,0-0.3,0c-0.5,0-0.9-0.3-1-0.8l0-0.1l0,0c-0.2,0.2-0.5,0.3-0.7,0.3c-0.3,0-0.5-0.1-0.7-0.3
		c-0.4-0.4-0.4-1.1,0-1.5l0,0l-0.1,0c-0.5-0.1-0.9-0.7-0.7-1.3c0.1-0.5,0.7-0.9,1.3-0.7l1.2,0.3l3-3h-4.2L12.1,26
		c-0.2,0.3-0.5,0.5-0.9,0.5c-0.2,0-0.4,0-0.5-0.1c-0.5-0.3-0.7-0.9-0.4-1.4l0-0.1h0C9.8,24.9,9.3,24.4,9.3,23.8L9.3,23.8L9.3,23.8z"
		/>
</g>
</svg>
