<?xml version="1.0" encoding="utf-8"?>
<!-- Generator: Adobe Illustrator 22.0.1, SVG Export Plug-In . SVG Version: 6.00 Build 0)  -->
<svg height="35" version="1.1" id="Layer_1" xmlns="http://www.w3.org/2000/svg" xmlns:xlink="http://www.w3.org/1999/xlink" x="0px" y="0px"
	 viewBox="0 0 24 24" style="enable-background:new 0 0 24 24;" xml:space="preserve">
<style type="text/css">
	.st0{fill:url(#SVGID_1_);}
</style>
<linearGradient id="SVGID_1_" gradientUnits="userSpaceOnUse" x1="12.0059" y1="1" x2="12.0059" y2="23">
	<stop  offset="0" style="stop-color:#FFAE00"/>
	<stop  offset="1" style="stop-color:#FF7124"/>
</linearGradient>
<path class="st0" d="M12,23c-6-2.7-9-5.3-9-8V5c0-1,0.5-1,2-2c0.2-0.1,3.6-2,7-2c3,0,5.5,1,7,2s2,1,2,2c0,0.3,0,8.5,0,10
	C21,17.7,18,20.3,12,23z M19,15c0-0.2,0-0.6,0-1.2c0-0.3,0-0.9,0-2c0-0.6,0-1.2,0-1.7c0-2.2,0-4.1,0-4.7c-0.3-0.2-0.8-0.5-1.1-0.7
	C16.4,3.7,14.3,3,12,3C9.8,3,7,4.1,6.1,4.7C5.8,4.8,5.3,5.2,5,5.4V15c0,1.5,2.2,3.6,7,5.8C16.8,18.6,19,16.5,19,15z M11,12.6
	l4.3-4.3l1.4,1.4L11,15.4l-3.7-3.7l1.4-1.4L11,12.6z"/>
</svg>
