<?xml version="1.0" encoding="utf-8"?>
<!-- Generator: Adobe Illustrator 22.0.1, SVG Export Plug-In . SVG Version: 6.00 Build 0)  -->
<svg width="37" version="1.1" id="Layer_1" xmlns="http://www.w3.org/2000/svg" xmlns:xlink="http://www.w3.org/1999/xlink" x="0px" y="0px"
	 viewBox="0 0 24 24" style="enable-background:new 0 0 24 24;" xml:space="preserve">
<style type="text/css">
	.st0{fill:url(#SVGID_1_);}
</style>
<linearGradient id="SVGID_1_" gradientUnits="userSpaceOnUse" x1="12" y1="1" x2="12" y2="23">
	<stop  offset="0" style="stop-color:#FFAE00"/>
	<stop  offset="1" style="stop-color:#FF7124"/>
</linearGradient>
<path class="st0" d="M4.2,19.8c-0.9-0.9-1.2-2.3-0.9-4.2C1.8,14.5,1,13.3,1,12s0.8-2.5,2.3-3.6C3,6.6,3.3,5.1,4.2,4.2S6.6,3,8.4,3.3
	C9.5,1.8,10.7,1,12,1s2.5,0.8,3.6,2.3c1.8-0.3,3.3,0,4.2,0.9c0.9,0.9,1.2,2.3,0.9,4.2C22.2,9.5,23,10.7,23,12s-0.8,2.5-2.3,3.6
	c0.3,1.8,0,3.3-0.9,4.2c-0.9,0.9-2.3,1.2-4.2,0.9C14.5,22.2,13.3,23,12,23s-2.5-0.8-3.6-2.3C6.6,21,5.1,20.7,4.2,19.8z M8.7,18.6
	c0.4-0.1,0.8,0.1,1,0.4c0.9,1.4,1.7,2,2.3,2s1.4-0.6,2.3-2c0.2-0.3,0.6-0.5,1-0.4c1.6,0.3,2.6,0.2,3-0.2c0.4-0.4,0.6-1.4,0.2-3
	c-0.1-0.4,0.1-0.8,0.4-1c1.4-0.9,2-1.7,2-2.3s-0.6-1.4-2-2.3c-0.3-0.2-0.5-0.6-0.4-1c0.3-1.6,0.2-2.6-0.2-3c-0.4-0.4-1.4-0.6-3-0.2
	c-0.4,0.1-0.8-0.1-1-0.4c-0.9-1.4-1.7-2-2.3-2s-1.4,0.6-2.3,2c-0.2,0.3-0.6,0.5-1,0.4c-1.6-0.3-2.6-0.2-3,0.2
	c-0.4,0.4-0.6,1.4-0.2,3c0.1,0.4-0.1,0.8-0.4,1c-1.4,0.9-2,1.7-2,2.3s0.6,1.4,2,2.3c0.3,0.2,0.5,0.6,0.4,1c-0.3,1.6-0.2,2.6,0.2,3
	C6.1,18.8,7.1,18.9,8.7,18.6z M11,12.6l4.3-4.3l1.4,1.4L11,15.4l-3.7-3.7l1.4-1.4L11,12.6z"/>
</svg>
